<mxfile host="app.diagrams.net" modified="2020-08-27T14:39:41.935Z" agent="5.0 (Windows)" etag="sa-R86Gf7erBa2S_yMaP" version="13.6.5" type="github">
  <diagram id="n8KRO-15VKzDYcnD0hiF" name="Page-1">
    <mxGraphModel dx="1038" dy="547" grid="1" gridSize="10" guides="1" tooltips="1" connect="1" arrows="1" fold="1" page="1" pageScale="1" pageWidth="1169" pageHeight="827" math="0" shadow="0">
      <root>
        <mxCell id="0" />
        <mxCell id="1" parent="0" />
        <mxCell id="THTT-mHFmN4pJH_GiKkk-1" value="Procurement Planning" style="swimlane;html=1;childLayout=stackLayout;resizeParent=1;resizeParentMax=0;horizontal=1;startSize=20;horizontalStack=0;" vertex="1" parent="1">
          <mxGeometry x="40" y="34" width="1110" height="560" as="geometry" />
        </mxCell>
        <mxCell id="THTT-mHFmN4pJH_GiKkk-2" value="SCM" style="swimlane;html=1;startSize=20;horizontal=0;" vertex="1" parent="THTT-mHFmN4pJH_GiKkk-1">
          <mxGeometry y="20" width="1110" height="180" as="geometry" />
        </mxCell>
        <mxCell id="THTT-mHFmN4pJH_GiKkk-5" value="Start" style="rounded=1;whiteSpace=wrap;html=1;" vertex="1" parent="THTT-mHFmN4pJH_GiKkk-2">
          <mxGeometry x="80" y="16" width="100" height="44" as="geometry" />
        </mxCell>
        <mxCell id="THTT-mHFmN4pJH_GiKkk-30" value="End" style="rounded=1;whiteSpace=wrap;html=1;" vertex="1" parent="THTT-mHFmN4pJH_GiKkk-2">
          <mxGeometry x="1020" y="109" width="70" height="38" as="geometry" />
        </mxCell>
        <mxCell id="THTT-mHFmN4pJH_GiKkk-28" value="Submission to PPRA" style="whiteSpace=wrap;html=1;rounded=0;" vertex="1" parent="THTT-mHFmN4pJH_GiKkk-2">
          <mxGeometry x="840" y="98" width="120" height="60" as="geometry" />
        </mxCell>
        <mxCell id="THTT-mHFmN4pJH_GiKkk-12" value="Definition of a procurement period (start of year)" style="rounded=0;whiteSpace=wrap;html=1;" vertex="1" parent="THTT-mHFmN4pJH_GiKkk-2">
          <mxGeometry x="70" y="98" width="120" height="54" as="geometry" />
        </mxCell>
        <mxCell id="THTT-mHFmN4pJH_GiKkk-22" value="Consolidation of Departmental plans" style="whiteSpace=wrap;html=1;rounded=0;" vertex="1" parent="THTT-mHFmN4pJH_GiKkk-2">
          <mxGeometry x="480" y="98" width="120" height="60" as="geometry" />
        </mxCell>
        <mxCell id="THTT-mHFmN4pJH_GiKkk-32" value="" style="edgeStyle=orthogonalEdgeStyle;rounded=0;orthogonalLoop=1;jettySize=auto;html=1;entryX=0;entryY=0.5;entryDx=0;entryDy=0;" edge="1" parent="THTT-mHFmN4pJH_GiKkk-2" source="THTT-mHFmN4pJH_GiKkk-28" target="THTT-mHFmN4pJH_GiKkk-30">
          <mxGeometry relative="1" as="geometry">
            <mxPoint x="1050" y="128" as="targetPoint" />
          </mxGeometry>
        </mxCell>
        <mxCell id="THTT-mHFmN4pJH_GiKkk-3" value="HOD" style="swimlane;html=1;startSize=20;horizontal=0;" vertex="1" parent="THTT-mHFmN4pJH_GiKkk-1">
          <mxGeometry y="200" width="1110" height="120" as="geometry" />
        </mxCell>
        <mxCell id="THTT-mHFmN4pJH_GiKkk-19" value="" style="endArrow=classic;html=1;exitX=0.5;exitY=1;exitDx=0;exitDy=0;" edge="1" parent="THTT-mHFmN4pJH_GiKkk-3" source="THTT-mHFmN4pJH_GiKkk-5">
          <mxGeometry width="50" height="50" relative="1" as="geometry">
            <mxPoint x="80" y="90" as="sourcePoint" />
            <mxPoint x="130" y="-84" as="targetPoint" />
          </mxGeometry>
        </mxCell>
        <mxCell id="THTT-mHFmN4pJH_GiKkk-20" value="Preparation of annual procurement plan per Department" style="whiteSpace=wrap;html=1;rounded=0;" vertex="1" parent="THTT-mHFmN4pJH_GiKkk-3">
          <mxGeometry x="70" y="49" width="120" height="60" as="geometry" />
        </mxCell>
        <mxCell id="THTT-mHFmN4pJH_GiKkk-4" value="CEO" style="swimlane;html=1;startSize=20;horizontal=0;" vertex="1" parent="THTT-mHFmN4pJH_GiKkk-1">
          <mxGeometry y="320" width="1110" height="120" as="geometry" />
        </mxCell>
        <mxCell id="THTT-mHFmN4pJH_GiKkk-11" value="Board" style="swimlane;html=1;startSize=20;horizontal=0;" vertex="1" parent="THTT-mHFmN4pJH_GiKkk-1">
          <mxGeometry y="440" width="1110" height="120" as="geometry" />
        </mxCell>
        <mxCell id="THTT-mHFmN4pJH_GiKkk-21" value="" style="edgeStyle=orthogonalEdgeStyle;rounded=0;orthogonalLoop=1;jettySize=auto;html=1;" edge="1" parent="THTT-mHFmN4pJH_GiKkk-1" source="THTT-mHFmN4pJH_GiKkk-12" target="THTT-mHFmN4pJH_GiKkk-20">
          <mxGeometry relative="1" as="geometry" />
        </mxCell>
        <mxCell id="THTT-mHFmN4pJH_GiKkk-23" value="" style="edgeStyle=orthogonalEdgeStyle;rounded=0;orthogonalLoop=1;jettySize=auto;html=1;" edge="1" parent="THTT-mHFmN4pJH_GiKkk-1" source="THTT-mHFmN4pJH_GiKkk-20" target="THTT-mHFmN4pJH_GiKkk-22">
          <mxGeometry relative="1" as="geometry" />
        </mxCell>
        <mxCell id="THTT-mHFmN4pJH_GiKkk-13" value="&lt;div&gt;- Updated product, item, services catalog&lt;/div&gt;&lt;div&gt;- Updated list of departments/directorate&lt;/div&gt;&lt;div&gt;- Budget&lt;/div&gt;&lt;div&gt;- Approved work plans&lt;br&gt;&lt;/div&gt;" style="shape=parallelogram;perimeter=parallelogramPerimeter;whiteSpace=wrap;html=1;fixedSize=1;rounded=0;" vertex="1" parent="1">
          <mxGeometry x="290" y="135" width="210" height="87" as="geometry" />
        </mxCell>
        <mxCell id="THTT-mHFmN4pJH_GiKkk-16" value="" style="endArrow=classic;html=1;exitX=0;exitY=0.5;exitDx=0;exitDy=0;entryX=1;entryY=0.5;entryDx=0;entryDy=0;" edge="1" parent="1" source="THTT-mHFmN4pJH_GiKkk-13" target="THTT-mHFmN4pJH_GiKkk-12">
          <mxGeometry width="50" height="50" relative="1" as="geometry">
            <mxPoint x="500" y="322" as="sourcePoint" />
            <mxPoint x="550" y="272" as="targetPoint" />
          </mxGeometry>
        </mxCell>
        <mxCell id="THTT-mHFmN4pJH_GiKkk-27" value="" style="edgeStyle=orthogonalEdgeStyle;rounded=0;orthogonalLoop=1;jettySize=auto;html=1;" edge="1" parent="1" source="THTT-mHFmN4pJH_GiKkk-24" target="THTT-mHFmN4pJH_GiKkk-26">
          <mxGeometry relative="1" as="geometry" />
        </mxCell>
        <mxCell id="THTT-mHFmN4pJH_GiKkk-24" value="Apportioning of 30% to reserve groups" style="whiteSpace=wrap;html=1;rounded=0;" vertex="1" parent="1">
          <mxGeometry x="720" y="152" width="120" height="60" as="geometry" />
        </mxCell>
        <mxCell id="THTT-mHFmN4pJH_GiKkk-25" value="" style="edgeStyle=orthogonalEdgeStyle;rounded=0;orthogonalLoop=1;jettySize=auto;html=1;" edge="1" parent="1" source="THTT-mHFmN4pJH_GiKkk-22" target="THTT-mHFmN4pJH_GiKkk-24">
          <mxGeometry relative="1" as="geometry" />
        </mxCell>
        <mxCell id="THTT-mHFmN4pJH_GiKkk-29" value="" style="edgeStyle=orthogonalEdgeStyle;rounded=0;orthogonalLoop=1;jettySize=auto;html=1;entryX=0.5;entryY=1;entryDx=0;entryDy=0;" edge="1" parent="1" source="THTT-mHFmN4pJH_GiKkk-26" target="THTT-mHFmN4pJH_GiKkk-28">
          <mxGeometry relative="1" as="geometry">
            <mxPoint x="940" y="350" as="targetPoint" />
          </mxGeometry>
        </mxCell>
        <mxCell id="THTT-mHFmN4pJH_GiKkk-26" value="Approval of consolidated plan" style="whiteSpace=wrap;html=1;rounded=0;" vertex="1" parent="1">
          <mxGeometry x="720" y="430" width="120" height="78" as="geometry" />
        </mxCell>
      </root>
    </mxGraphModel>
  </diagram>
</mxfile>
